<svg width="951" height="201" viewBox="0 0 951 201" fill="none" xmlns="http://www.w3.org/2000/svg">
<path d="M96.4061 88.4061C96.4061 92.8243 92.8182 96.4406 88.4152 96.0743C78.4928 95.249 68.7415 92.8902 59.5131 89.0676C47.8165 84.2227 37.1888 77.1215 28.2367 68.1694C19.2845 59.2173 12.1833 48.5895 7.33847 36.893C3.51591 27.6645 1.15703 17.9133 0.331739 7.99091C-0.034483 3.58783 3.58172 3.13124e-07 8 6.99382e-07L88.4061 7.7287e-06C92.8243 8.11496e-06 96.4061 3.58173 96.4061 8.00001V88.4061Z" fill="#15B76D"/>
<path d="M223.495 5.32405e-06C227.914 5.52084e-06 231.545 3.59455 231.013 7.9806C230.309 13.7715 228.842 19.4518 226.641 24.8652C223.437 32.7484 218.74 39.9113 212.819 45.9449C206.897 51.9785 199.868 56.7645 192.131 60.0299C184.394 63.2952 176.102 64.9759 167.728 64.9759C159.354 64.9759 151.062 63.2952 143.326 60.0299C135.589 56.7645 128.56 51.9784 122.638 45.9449C116.717 39.9113 112.02 32.7484 108.815 24.8652C106.615 19.4518 105.148 13.7715 104.444 7.98059C103.911 3.59455 107.543 1.5953e-07 111.961 3.5632e-07L223.495 5.32405e-06Z" fill="#F2960C"/>
<path d="M223.495 103.659C227.914 103.659 231.545 107.254 231.013 111.64C230.309 117.431 228.842 123.111 226.641 128.524C223.437 136.408 218.74 143.571 212.819 149.604C206.897 155.638 199.868 160.424 192.131 163.689C184.394 166.954 176.102 168.635 167.728 168.635C159.354 168.635 151.062 166.954 143.326 163.689C135.589 160.424 128.56 155.638 122.638 149.604C116.717 143.57 112.02 136.408 108.815 128.524C106.615 123.111 105.148 117.431 104.444 111.64C103.911 107.254 107.543 103.659 111.961 103.659L223.495 103.659Z" fill="#9C5E00"/>
<path d="M96.4061 192.065C96.4061 196.484 92.8182 200.1 88.4152 199.734C78.4928 198.908 68.7415 196.549 59.5131 192.727C47.8165 187.882 37.1888 180.781 28.2367 171.829C19.2845 162.876 12.1833 152.249 7.33847 140.552C3.51591 131.324 1.15703 121.572 0.331739 111.65C-0.034483 107.247 3.58172 103.659 8 103.659L88.4061 103.659C92.8243 103.659 96.4061 107.241 96.4061 111.659V192.065Z" fill="#016C38"/>
<path d="M434.628 37.0074H356.166V83.506H432.386V120.481H356.166V196.111H317.495V0.0326233H434.628V37.0074Z" fill="#9C5E00"/>
<path d="M491.668 80.1447C495.031 71.1811 500.542 64.4584 508.201 59.9766C516.048 55.4948 524.734 53.2539 534.262 53.2539V93.59C523.24 92.2829 513.339 94.5238 504.558 100.313C495.965 106.102 491.668 115.719 491.668 129.164V196.111H455.52V56.055H491.668V80.1447Z" fill="#9C5E00"/>
<path d="M575.144 140.929C580.001 158.483 593.171 167.26 614.655 167.26C628.479 167.26 638.941 162.591 646.04 153.254L675.183 170.061C661.358 190.042 640.996 200.033 614.094 200.033C590.929 200.033 572.341 193.03 558.33 179.024C544.319 165.019 537.314 147.372 537.314 126.083C537.314 104.981 544.226 87.4276 558.05 73.422C571.874 59.2297 589.622 52.1335 611.292 52.1335C631.842 52.1335 648.748 59.2297 662.012 73.422C675.463 87.6143 682.188 105.168 682.188 126.083C682.188 130.752 681.721 135.7 680.787 140.929H575.144ZM574.583 112.918H646.04C643.985 103.394 639.688 96.2978 633.149 91.6293C626.798 86.9607 619.512 84.6265 611.292 84.6265C601.578 84.6265 593.545 87.1475 587.193 92.1895C580.841 97.0448 576.638 103.954 574.583 112.918Z" fill="#9C5E00"/>
<path d="M729.692 95.8309C729.692 99.5658 732.121 102.647 736.978 105.075C742.022 107.316 748.093 109.37 755.192 111.237C762.291 112.918 769.39 115.159 776.489 117.96C783.588 120.574 789.566 125.056 794.423 131.405C799.467 137.754 801.989 145.691 801.989 155.215C801.989 169.594 796.572 180.705 785.736 188.548C775.088 196.204 761.731 200.033 745.665 200.033C716.895 200.033 697.28 188.922 686.818 166.699L718.203 149.052C722.313 161.19 731.467 167.26 745.665 167.26C758.555 167.26 765 163.245 765 155.215C765 151.48 762.478 148.492 757.434 146.251C752.577 143.823 746.599 141.676 739.5 139.809C732.401 137.941 725.302 135.607 718.203 132.806C711.104 130.005 705.033 125.616 699.989 119.64C695.132 113.478 692.703 105.822 692.703 96.6713C692.703 82.8524 697.747 72.0214 707.835 64.1783C718.11 56.1484 730.813 52.1335 745.945 52.1335C757.341 52.1335 767.709 54.7479 777.049 59.9766C786.39 65.0186 793.769 72.3015 799.187 81.8253L768.363 98.6321C763.879 89.1083 756.407 84.3464 745.945 84.3464C741.275 84.3464 737.352 85.3734 734.176 87.4276C731.187 89.4817 729.692 92.2829 729.692 95.8309Z" fill="#9C5E00"/>
<path d="M897.534 52.1335C912.852 52.1335 925.462 57.2689 935.364 67.5396C945.452 77.8104 950.495 92.0027 950.495 110.117V196.111H914.347V114.598C914.347 105.261 911.825 98.1652 906.781 93.3099C901.737 88.2679 895.012 85.7469 886.605 85.7469C877.264 85.7469 869.792 88.6414 864.187 94.4304C858.583 100.219 855.781 108.903 855.781 120.481V196.111H819.632V0.0326233H855.781V71.7413C864.561 58.6694 878.479 52.1335 897.534 52.1335Z" fill="#9C5E00"/>
</svg>
